<?xml version="1.0" standalone="no"?><!DOCTYPE svg PUBLIC "-//W3C//DTD SVG 1.1//EN" "http://www.w3.org/Graphics/SVG/1.1/DTD/svg11.dtd"><svg class="icon" width="200px" height="199.42px" viewBox="0 0 1027 1024" version="1.1" xmlns="http://www.w3.org/2000/svg"><path d="M436.4 298.6m-35 0a35 35 0 1 0 70 0 35 35 0 1 0-70 0Z" fill="#6c6c6c" /><path d="M30.4 1022.4H998.2c38.6 0 38.6-60 0-60H30.4c-38.6 0-38.6 60 0 60zM290.8 814.2H127.2l30 30v-274-228l-30 30h163.6l-30-30v502c0 38.6 60 38.6 60 0v-274-228c0-16.4-13.6-30-30-30H127.2c-16.4 0-30 13.6-30 30v502c0 16.4 13.6 30 30 30h163.6c38.8 0 38.8-60 0-60zM435.8 220.8h163.6l-30-30V844l30-30h-163.6l30 30V551.4v-123.6c0-38.6-60-38.6-60 0V844c0 16.4 13.6 30 30 30h163.6c16.4 0 30-13.6 30-30V606.4 248.8v-58c0-16.4-13.6-30-30-30h-163.6c-38.6 0-38.6 60 0 60zM908.2 814.2h-163.6l30 30V639.2 254 33.4v-0.6l-30 30h163.6l-30-30V844.2c0 38.6 60 38.6 60 0V639.2 254 33.4v-0.6c0-16.4-13.6-30-30-30h-163.6c-16.4 0-30 13.6-30 30V844.2c0 16.4 13.6 30 30 30h163.6c38.6 0 38.6-60 0-60z" fill="#6c6c6c" /></svg>