<?xml version="1.0" standalone="no"?><!DOCTYPE svg PUBLIC "-//W3C//DTD SVG 1.1//EN" "http://www.w3.org/Graphics/SVG/1.1/DTD/svg11.dtd"><svg class="icon" width="200px" height="200.00px" viewBox="0 0 1024 1024" version="1.1" xmlns="http://www.w3.org/2000/svg"><path d="M512.00041 983.04c260.15744 0 471.04-210.88256 471.04-471.04S772.15785 40.96 512.00041 40.96L551.46537 1.49504C551.93641 1.536 552.96041 512 552.96041 512v24.41216l-21.48352 11.61216L82.47337 790.75328c-0.28672-0.4096 15.03232-54.6816 15.03232-54.6816A470.97856 470.97856 0 0 0 512.00041 983.04z m512-471.04c0 282.76736-229.23264 512-512 512-194.62144 0-363.86816-108.58496-450.47808-268.47232L512.00041 512V0c282.76736 0 512 229.23264 512 512z" fill="#00aeb8" /><path d="M471.04041 39.46496v3.25632C228.76201 63.54944 40.96041 266.97728 40.96041 512c0 60.66176 11.4688 119.66464 33.46432 174.71488l-3.93216 2.1504-44.66688-15.872-1.78176-5.48864 427.4176-232.448L430.08041 471.04V6.51264l4.54656-0.69632L471.04041 39.46496zM471.04041 471.04L38.19561 706.41664A510.50496 510.50496 0 0 1 0.00041 512C0.00041 243.01568 207.42185 22.48704 471.04041 1.61792V471.04z" fill="#00aeb8" /></svg>