<?xml version="1.0" standalone="no"?><!DOCTYPE svg PUBLIC "-//W3C//DTD SVG 1.1//EN" "http://www.w3.org/Graphics/SVG/1.1/DTD/svg11.dtd"><svg t="1496974786269" class="icon" style="" viewBox="0 0 1024 1024" version="1.1" xmlns="http://www.w3.org/2000/svg" p-id="1013" xmlns:xlink="http://www.w3.org/1999/xlink" width="200" height="200"><defs><style type="text/css"></style></defs><path d="M454.651362 864.10022c-50.89618 0-100.279914-9.973142-146.776901-29.641087-44.902676-18.99461-85.226057-46.181809-119.851669-80.807421-34.624589-34.625612-61.810764-74.948993-80.803327-119.851669-19.666922-46.495964-29.639041-95.874581-29.639041-146.767692 0-50.900274 9.972119-100.285031 29.639041-146.784064 18.992563-44.904723 46.178739-85.23015 80.803327-119.855762 34.624589-34.624589 74.947969-61.811788 119.851669-80.805374 46.496987-19.666922 95.879698-29.639041 146.776901-29.639041 42.481534 0 84.192517 7.034207 123.976616 20.906146 38.415938 13.395078 74.294077 32.885991 106.634646 57.930387l12.377912 9.584286L445.724039 510.806825l311.448358 201.971991-10.894118 13.274328C674.271292 813.783231 567.977407 864.10022 454.651362 864.10022zM454.651362 140.64832c-190.989869 0-346.371752 155.388023-346.371752 346.385055 0 190.988846 155.381883 346.367659 346.371752 346.367659 98.348935 0 190.93461-41.256636 256.648264-113.78244L400.457066 518.040576l253.417687-314.300312C595.355965 162.411997 526.806729 140.64832 454.651362 140.64832z" p-id="1014" fill="#898989"></path><path d="M852.248799 724.059743 515.152295 505.44777l272.884041-338.470805 11.901051 9.213849c44.561915 34.503838 81.432661 79.267345 106.628506 129.452327 26.444279 52.673663 39.85266 109.465111 39.85266 168.796404 0 44.3593-7.644097 87.804788-22.717398 129.128963-14.559601 39.910988-35.670407 76.880995-62.748113 109.880573L852.248799 724.059743zM560.417221 498.214019 845.694523 683.21857c45.252647-59.873646 70.025866-133.474944 70.025866-208.778001 0-102.876042-44.588521-198.441585-122.875538-264.514419L560.417221 498.214019z" p-id="1015" fill="#898989"></path></svg>